<?xml version="1.0" encoding="utf-8"?>
<!-- Generator: Adobe Illustrator 22.0.1, SVG Export Plug-In . SVG Version: 6.00 Build 0)  -->
<svg version="1.0" id="Layer_2" xmlns="http://www.w3.org/2000/svg" xmlns:xlink="http://www.w3.org/1999/xlink" x="0px" y="0px"
	 viewBox="0 0 109 13" style="enable-background:new 0 0 109 13;" xml:space="preserve">
<style type="text/css">
	.st0{fill:#FFFFFF;}
</style>
<g>
	<path class="st0" d="M13.4,8.8c0-0.1-0.1-0.4-0.3-0.7c-0.1-0.2-0.2-0.3-0.2-0.4c1-1.1,1.9-2.5,2.7-4.1l1.1,0.4
		c-0.3,0.7-0.7,1.3-1,1.9v6.6h-1.1v-5C14.1,7.9,13.8,8.3,13.4,8.8z M13.3,2.8v-1h3.2V0.7h1.1v1.1h3V0.7h1.1v1.1h3.2v1h-3.2v0.8h-1.1
		V2.8h-3v0.8h-1.1V2.8H13.3z M16.7,5.2v-1h8v1h-1.1v5.4c0,1.1-0.5,1.7-1.6,1.7c-0.5,0-1.1,0-1.8,0c-0.1-0.4-0.1-0.7-0.2-1.1
		c0.6,0,1.1,0,1.6,0c0.7,0,1-0.2,1-0.8V5.2H16.7z M17.1,10.2V6.4h4v3.7H17.1z M18,7.3v2h2.1v-2H18z"/>
	<path class="st0" d="M28.1,11.7v-1h11.8v1H28.1z M28.6,4.4V3.3h3.3c-0.2-0.3-0.6-0.7-1.1-1.4c-0.2-0.3-0.4-0.5-0.5-0.6l1-0.5
		c0.2,0.2,0.4,0.5,0.8,1c0.4,0.5,0.6,0.8,0.8,1l-1,0.6h2.8c0.5-0.7,1.1-1.5,1.8-2.6l1.2,0.5c-0.5,0.7-1.1,1.4-1.7,2.1h3.3v1.1H28.6z
		 M29.5,8V6.9h9.1V8H29.5z"/>
	<path class="st0" d="M43.8,8.2V7.3h10.8v0.9h-4.8v1.1H54v0.8h-4.2v1H55v0.9H43.3v-0.9h5.3v-1h-4.2V9.3h4.2V8.2H43.8z M44.7,6.4V1.7
		h2.7c0.1-0.2,0.2-0.5,0.3-0.8c0-0.1,0-0.2,0-0.2L49,0.7C49,0.8,49,0.9,48.9,1c-0.1,0.3-0.2,0.5-0.3,0.7h5.1v4.6H44.7z M45.8,2.6v1
		h6.8v-1H45.8z M45.8,4.4v1.1h6.8V4.4H45.8z"/>
	<path class="st0" d="M60.4,5V4.1h7.9V5h-3.2C65,5,64.9,5.1,64.7,5.2c-0.3,0.2-0.6,0.4-0.8,0.5c0.5,0.5,0.8,1,1,1.5
		c1.3-0.5,2.5-1.1,3.6-1.8l0.6,0.9c-0.7,0.3-1.4,0.7-2.1,1c0.6,1.6,1.6,2.7,3.2,3.4c-0.2,0.3-0.5,0.6-0.7,0.9
		c-1.6-0.8-2.8-2.1-3.3-3.9c-0.1,0-0.2,0.1-0.3,0.2c-0.2,0.1-0.3,0.1-0.4,0.2c0.2,0.6,0.3,1.2,0.3,1.9c0,1.5-0.6,2.2-1.9,2.3
		c-0.5,0-1,0-1.6,0c0-0.1-0.1-0.3-0.1-0.6c0-0.2-0.1-0.3-0.1-0.4c0.2,0,0.5,0,0.8,0c0.3,0,0.5,0,0.6,0c0.8,0.1,1.2-0.4,1.2-1.3
		c0-0.3,0-0.6,0-0.8c-1.4,1.2-3.3,2.2-5.6,2.9c-0.1-0.3-0.3-0.7-0.5-1c2.3-0.5,4.2-1.5,5.8-2.9C64.1,8,64,7.8,63.9,7.5
		c-1.4,1.1-3,1.9-4.9,2.4c0-0.1-0.1-0.3-0.2-0.5c-0.1-0.2-0.2-0.3-0.2-0.4c1.9-0.5,3.5-1.2,4.9-2.2c0-0.1-0.1-0.2-0.2-0.4
		c-0.1-0.1-0.1-0.1-0.1-0.1c-1.2,0.6-2.5,1.2-4,1.6c0-0.1-0.1-0.3-0.2-0.5c-0.1-0.2-0.2-0.4-0.2-0.5c2.1-0.4,3.8-1,5-1.9H60.4z
		 M58.7,4.3V2H64l-0.5-1.3l1.3-0.2c0.2,0.4,0.4,0.9,0.5,1.4L65.2,2h4.7v2.3h-1.1V3h-8.8v1.3H58.7z"/>
	<path class="st0" d="M73.5,7V6.1h0.7V1.9h1.2c0-0.2,0.1-0.4,0.1-0.6c0-0.3,0.1-0.5,0.1-0.6l1.1,0.1l-0.3,1.2h1.7V11
		c0,0.8-0.4,1.2-1.2,1.2c-0.2,0-0.6,0-1.1,0c0-0.1,0-0.2-0.1-0.3c0-0.3-0.1-0.5-0.1-0.7c0.1,0,0.1,0,0.2,0c0.3,0,0.5,0,0.7,0
		c0.5,0,0.7-0.1,0.6-0.5V7h-2.1c0.1,2.4-0.2,4.2-0.9,5.4c-0.1-0.1-0.2-0.1-0.3-0.2c-0.2-0.2-0.4-0.3-0.5-0.4
		c0.6-1.1,0.8-2.6,0.8-4.7H73.5z M75.2,2.9v3.2h2.1V2.9H75.2z M76.1,5.5c-0.2-0.5-0.4-1-0.6-1.7l0.7-0.3c0.1,0.2,0.1,0.4,0.2,0.6
		c0.2,0.5,0.3,0.8,0.4,1L76.1,5.5z M76.2,9.9c-0.2-0.6-0.5-1.2-0.7-1.8l0.7-0.3c0.1,0.2,0.2,0.4,0.3,0.7c0.2,0.4,0.4,0.8,0.5,1.1
		L76.2,9.9z M79.1,12.5c-0.1-0.1-0.2-0.2-0.4-0.4c-0.2-0.2-0.3-0.3-0.4-0.4c0.6-0.6,1-1.2,1.2-1.8c0.2-0.6,0.2-1.5,0.2-2.9V5.2h3.8
		v5.5c0,0.3,0.1,0.4,0.4,0.4H84c0.3,0,0.4-0.1,0.4-0.5c0.1-0.6,0.1-1.2,0.1-2.1c0.1,0.1,0.3,0.1,0.5,0.2c0.1,0,0.2,0.1,0.3,0.1
		c0,0.9-0.1,1.6-0.2,2.2c-0.1,0.8-0.5,1.1-1.2,1.1h-0.5c-0.8,0-1.2-0.4-1.1-1.2V6.2h-1.7V7C80.8,9.5,80.2,11.3,79.1,12.5z M78.8,3.6
		v-1h2.6c-0.1-0.3-0.3-0.7-0.5-1.2c-0.1-0.2-0.1-0.3-0.1-0.4l1.2-0.2l0.7,1.9H85v1H78.8z"/>
	<path class="st0" d="M89.3,7.4c-0.1-0.1-0.2-0.3-0.3-0.5c-0.1-0.2-0.2-0.4-0.3-0.5c1.5-0.7,2.9-1.5,4.3-2.6l0.7,0.9
		C92.3,5.7,90.8,6.5,89.3,7.4z M89,4.6V2.1h5.2c-0.1-0.2-0.2-0.5-0.3-0.8c-0.1-0.2-0.2-0.3-0.2-0.4L95,0.6c0.1,0.2,0.2,0.4,0.3,0.8
		c0.1,0.3,0.2,0.5,0.2,0.6l-0.1,0.1h4.7v2.5h-1.2V3.2h-8.7v1.4H89z M90.3,8.1V7h8.5v1.1h-3.6v2.8h5v1H89v-1h5V8.1H90.3z M99.9,7.4
		c-0.8-0.6-2-1.3-3.7-2.3c-0.3-0.2-0.5-0.3-0.7-0.4l0.6-0.8c1.6,0.8,3,1.7,4.4,2.5L99.9,7.4z"/>
</g>
</svg>
