<?xml version="1.0" encoding="utf-8"?>
<!-- Generator: Adobe Illustrator 22.0.1, SVG Export Plug-In . SVG Version: 6.00 Build 0)  -->
<svg version="1.0" id="Layer_1" xmlns="http://www.w3.org/2000/svg" xmlns:xlink="http://www.w3.org/1999/xlink" x="0px" y="0px"
	 viewBox="0 0 188 117" style="enable-background:new 0 0 188 117;" xml:space="preserve">
<style type="text/css">
	.st0{fill:#FFFFFF;}
	.st1{fill:#002776;}
	.st2{fill:#00A1DE;}
</style>
<g id="Layer_2_1_">
	<g id="Layer_5">
		<rect x="184" y="56.3" class="st0" width="15.8" height="71"/>
	</g>
	<g id="Layer_6">
		<rect x="105" y="117" class="st0" width="93.5" height="10.3"/>
	</g>
	<g id="Layer_4">
	</g>
	<path class="st0" d="M105,117c4-0.1,9.7,0.8,15.3-5.2c5.6-6.1,44.8-51,46.3-52.5c1.4-1.5,3.7-3,6.9-3H188V117H105z"/>
</g>
<g>
	<path class="st1" d="M178.3,109.3c-1.5,0.1-2.9-0.4-3.9-1.3l0,0c1.1,1.1,2.6,1.7,4.3,1.6c3.2-0.2,5.6-2.9,5.5-6
		c-0.1-1.6-0.8-3-1.9-4l0,0c0.9,1,1.5,2.3,1.6,3.7C183.9,106.4,181.5,109.1,178.3,109.3z"/>
	<path class="st1" d="M171.9,105.9c-0.2,0.1-0.2,0.3-0.1,0.5c0.1,0.2,0.2,0.3,0.4,0.3c0.1,0,0.1-0.1,0.1-0.4l0-0.1
		c0-0.3,0-0.4,0-0.5c0-0.1,0.1-0.2,0.2-0.2c0.3-0.1,0.5,0.1,0.6,0.4c0.1,0.4,0.1,0.7-0.3,0.8l-0.1-0.2c0.2-0.1,0.3-0.3,0.2-0.6
		c-0.1-0.2-0.2-0.3-0.4-0.3c-0.1,0-0.2,0.2-0.1,0.4l0,0.1l0,0.1c0,0.2,0,0.3,0,0.4c0,0.1-0.1,0.2-0.2,0.2c-0.2,0.1-0.5-0.1-0.6-0.4
		c-0.1-0.4-0.1-0.6,0.2-0.7L171.9,105.9z"/>
	<polygon class="st1" points="171.8,103.8 172.6,103.1 172.6,103.3 171.9,103.9 172.1,104.2 172.6,104.2 172.6,104.4 171.2,104.4 
		171.2,104.2 171.7,104.2 171.8,104.2 171.9,104.2 171.9,104.1 171.8,104.1 171.2,103.4 171.2,103.1 	"/>
	<path class="st1" d="M172.5,101.5l0.6,0.2l-0.1,0.2l-0.6-0.2l-1,0.3l0.1-0.2l0.6-0.2l0.1,0c0,0,0.1,0,0.1,0c0-0.1-0.1-0.1-0.1-0.1
		l-0.4-0.5l0.1-0.2L172.5,101.5z"/>
	<polygon class="st1" points="173.5,98.8 173.2,99.2 174.1,99.9 173.9,100.2 173,99.4 172.6,99.8 172.4,99.6 173.3,98.6 	"/>
	<polygon class="st1" points="175.5,97.4 174.8,97.8 174.9,98.1 175.6,97.7 175.8,98 175.1,98.3 175.2,98.7 176,98.2 176.2,98.5 
		175.1,99.1 174.3,97.8 175.4,97.2 	"/>
	<path class="st1" d="M177.6,97.3c-0.1-0.1-0.1-0.2-0.2-0.3c0,0.1,0,0.2-0.1,0.3l-0.1,0.3l0.4-0.1L177.6,97.3z M178.4,98.1l-0.4,0
		l-0.2-0.3l-0.6,0.1l-0.1,0.4l-0.4,0.1l0.4-1.6l0.4-0.1L178.4,98.1z"/>
	<path class="st1" d="M180.8,98.6l-0.3-0.1l0.1-0.4c0,0,0-0.1,0.1-0.2c0-0.1,0.1-0.2,0.1-0.2c0-0.1,0-0.1,0.1-0.2l0-0.1
		c-0.1,0.2-0.1,0.2-0.2,0.3c0,0.1-0.1,0.1-0.1,0.1l-0.4,0.6l-0.3-0.1l-0.1-0.7c0,0,0-0.1,0-0.2c0-0.1,0-0.2,0-0.2c0,0,0-0.1,0-0.2
		l0,0.2c0,0.2-0.1,0.3-0.1,0.5l-0.1,0.5l-0.3-0.1l0.4-1.4l0.5,0.1l0.1,0.7c0,0.2,0,0.3,0,0.5c0.1-0.1,0.1-0.1,0.1-0.2
		c0-0.1,0.1-0.1,0.1-0.2l0.4-0.6l0.5,0.2L180.8,98.6z"/>
	<path class="st1" d="M180.6,103.4c0.4-0.3,0.8-0.4,1-0.4c0.1,0,0.3,0.1,0.3,0.2c0,0.2-0.2,0.3-0.5,0.4c-0.3,0.1-0.7,0.1-1.1,0
		C180.4,103.5,180.5,103.4,180.6,103.4z M174.6,103.8c-0.3,0-0.4-0.1-0.4-0.3c0,0,0-0.7,1.5-0.7c0.2,0,0.4,0,0.6,0
		c0,0-0.2,0.1-0.2,0.1l-0.1,0.1C175.8,103.3,175.2,103.8,174.6,103.8z M177.9,101.4c-0.2,0.2-0.5,0.5-0.9,0.8l-0.4,0.4
		c-0.3-0.1-0.6-0.1-1-0.1c-0.7,0-1.4,0.2-1.7,0.5c-0.1,0.1-0.2,0.2-0.2,0.4c0,0.4,0.4,0.5,0.5,0.6c0.6,0.3,1.2,0.2,1.7-0.2
		c0.3-0.2,0.7-0.6,1-0.8c0.2,0.1,0.5,0.1,0.8,0.2l0.3,0.1c-0.3,0.3-0.7,0.7-1,0.9l0,0c-0.4,0.4-0.8,0.7-1.2,0.7
		c-0.3,0.1-0.6,0-0.6-0.1c0,0,0,0,0,0c0.3,0.2,0.5,0.4,0.9,0.3c0.4,0,0.9-0.3,1.4-0.7l0.7-0.6l0.5-0.4c0,0,0.9,0.3,0.9,0.3
		c0,0,0,0,0,0c0,0-0.6,0.6-0.6,0.6l-0.5,0.5c-0.5,0.5-0.8,0.7-1.1,0.9c-0.5,0.3-0.9,0.5-1.3,0.5c-0.2,0-0.5,0-0.7-0.2c0,0,0,0,0,0
		c0.2,0.2,0.5,0.5,1.1,0.5c0.6,0,1.1-0.3,2-1c0.4-0.3,0.8-0.7,1.1-1.1l0.6-0.6c0.4,0.1,0.8,0.1,1.2,0.1c0.6,0,1.1-0.3,1.1-0.6
		c0-0.2-0.2-0.4-0.3-0.4c-0.1-0.1-0.4-0.2-0.7-0.2c-0.4,0-0.9,0.2-1.4,0.5l-0.3,0.3c0,0-0.1,0-0.1,0l-0.8-0.3
		c0.3-0.2,0.5-0.4,0.7-0.6c0.5-0.4,1-0.6,1.3-0.6c0.2,0,0.6,0,0.8,0.1c0,0,0,0,0,0c-0.4-0.4-0.8-0.4-1.1-0.4c-0.3,0-0.8,0.1-1.4,0.5
		c-0.2,0.2-0.6,0.5-0.9,0.8c0,0-0.4-0.1-0.4-0.1l-0.1,0l-0.5-0.1c0,0,0.3-0.2,0.3-0.2c0.3-0.3,0.6-0.6,0.8-0.8
		c0.8-0.7,1.4-0.8,1.7-0.7c0.4,0,0.7,0.1,0.9,0.3c0,0,0,0,0,0c-0.5-0.4-0.8-0.6-1.3-0.6C179.1,100.6,178.5,100.9,177.9,101.4z"/>
	<g>
		<path class="st1" d="M181.4,97.5c0-0.1,0.2-0.2,0.3-0.1c0.1,0.1,0.2,0.2,0.1,0.3c0,0.1-0.2,0.2-0.3,0.1
			C181.4,97.7,181.3,97.6,181.4,97.5z M181.8,97.6c0.1-0.1,0-0.2-0.1-0.3c-0.1,0-0.2,0-0.3,0.1c0,0.1,0,0.2,0.1,0.3
			C181.6,97.8,181.8,97.7,181.8,97.6z M181.7,97.7L181.7,97.7l-0.1-0.2l0,0l-0.1,0.1l0,0l0.1-0.2l0.1,0.1c0,0,0.1,0.1,0.1,0.1
			c0,0-0.1,0-0.1,0L181.7,97.7z M181.6,97.5C181.7,97.5,181.7,97.6,181.6,97.5C181.7,97.5,181.7,97.5,181.6,97.5L181.6,97.5
			L181.6,97.5L181.6,97.5z"/>
	</g>
</g>
<g>
	<g>
		<g>
			<path class="st2" d="M151.5,91.3h1v-1h1v-1h-1v-1h-1v1h-1v1h1V91.3z M157.7,91.1c-0.9,0-1.7,0.8-1.7,1.7c0,0.9,0.8,1.7,1.7,1.7
				c0.9,0,1.7-0.8,1.7-1.7C159.4,91.8,158.7,91.1,157.7,91.1z M146.2,96.8h11.5v-1.9h-11.5V96.8z M147.9,92.8c0-0.9-0.8-1.7-1.7-1.7
				c-0.9,0-1.7,0.8-1.7,1.7c0,0.9,0.7,1.7,1.7,1.7C147.2,94.4,147.9,93.7,147.9,92.8z M152.2,92.8c0,0.9,0.8,1.7,1.7,1.7
				s1.7-0.8,1.7-1.7c0-0.9-0.8-1.7-1.7-1.7S152.2,91.8,152.2,92.8z M150.1,94.4c0.9,0,1.7-0.8,1.7-1.7c0-0.9-0.8-1.7-1.7-1.7
				c-0.9,0-1.7,0.8-1.7,1.7C148.4,93.7,149.2,94.4,150.1,94.4z M162.5,98.8l-1.4,4.3l-1.4-4.3h-4.8v7.7h2.9v-5.8l1.9,5.8h2.9
				l1.9-5.8v5.8h2.9v-7.7H162.5z M149.1,98.8h-2.9v7.7h7.7v-1.9h-4.8V98.8z M145.3,98.8h-2.9l-2.9,2.9v-2.9h-2.9v7.7h2.9v-2.9
				l2.9,2.9h3.8l-4.3-4.3L145.3,98.8z"/>
		</g>
		<g>
			<path class="st2" d="M136.7,111.6V111h4.8v0.5H136.7z"/>
			<path class="st2" d="M149.2,113.6c-0.4,0-0.7-0.2-1-0.6c-0.3-0.4-0.5-1.1-0.6-2.1c0-0.4,0-0.8,0-1.1h-2.3v-0.5h2.8
				c0,0.1,0,0.2,0,0.4c0,0.4,0,0.7,0,0.9c0.5-0.4,0.9-0.7,1.3-1l0.4,0.3c-0.4,0.3-0.8,0.6-1.3,0.9c0.5,0.3,1,0.5,1.4,0.7l-0.3,0.4
				c-0.3-0.2-0.8-0.5-1.4-0.8c0,0.8,0.2,1.3,0.5,1.6c0.2,0.3,0.4,0.4,0.6,0.4c0.2,0,0.3-0.1,0.3-0.3c0,0,0-0.1,0-0.2
				c0.1-0.2,0.1-0.4,0.1-0.5c0.1,0.1,0.3,0.1,0.4,0.2c-0.1,0.3-0.1,0.6-0.2,0.8C149.8,113.5,149.5,113.6,149.2,113.6z"/>
			<path class="st2" d="M154,111.8c0-0.1,0-0.1-0.1-0.3c0-0.1-0.1-0.2-0.1-0.3c0.4-0.6,0.6-1.4,0.9-2.2l0.4,0.1
				c-0.1,0.4-0.2,0.7-0.3,1v3.6h-0.4v-2.6C154.3,111.4,154.2,111.6,154,111.8z M155.1,112.9c0.1-0.1,0.2-0.2,0.2-0.5v-3.3h0.4v1.3
				h0.5v0.4h-0.5v1.8c0.1,0,0.2-0.1,0.3-0.2c0.1,0,0.2-0.1,0.2-0.1c0,0.2,0,0.3,0,0.4c0,0-0.1,0-0.2,0.1c-0.2,0.1-0.3,0.2-0.4,0.2
				c-0.1,0-0.2,0.1-0.3,0.2l0,0L155.1,112.9z M158.4,113.7c-0.3-0.3-0.6-0.6-1-1c-0.1,0.4-0.5,0.7-1.2,1c-0.1-0.1-0.2-0.2-0.3-0.4
				c0.6-0.2,0.9-0.5,1.1-0.7c0.2-0.2,0.3-0.6,0.2-1.2v-0.6h0.4v0.6c0,0.4,0,0.7-0.1,0.9c0.2,0.2,0.5,0.4,0.9,0.8
				c0.1,0.1,0.2,0.2,0.3,0.2L158.4,113.7z M156.2,109.7v-0.4h2.4v0.4h-1l-0.1,0.6h1v2.4h-0.4v-2h-1.3v2.1h-0.4v-2.5h0.7l0.1-0.6
				H156.2z"/>
			<path class="st2" d="M162.9,112.6c-0.1-0.1-0.3-0.1-0.5-0.2c0.2-0.5,0.4-1.1,0.6-1.9l0.5,0.1c-0.1,0.4-0.3,1-0.5,1.8
				C163,112.5,163,112.5,162.9,112.6z M164.6,113.6c-0.5,0-0.8-0.2-0.8-0.8V110h0.5v2.7c0,0.3,0.1,0.4,0.4,0.4h0.7
				c0.3,0,0.5-0.1,0.5-0.4c0-0.1,0-0.2,0.1-0.4c0-0.1,0-0.2,0-0.3c0.2,0.1,0.3,0.1,0.5,0.2c0,0.1,0,0.2-0.1,0.4
				c0,0.2-0.1,0.3-0.1,0.4c-0.1,0.4-0.4,0.6-0.9,0.6H164.6z M165.3,110.5c-0.3-0.3-0.6-0.7-1-1.2l0.3-0.3c0.4,0.4,0.7,0.8,1,1.2
				L165.3,110.5z M166.9,112.3c-0.1-0.3-0.4-0.8-0.7-1.4c-0.1-0.1-0.1-0.2-0.1-0.3l0.4-0.2c0.1,0.1,0.2,0.3,0.3,0.5
				c0.3,0.5,0.5,0.9,0.6,1.1L166.9,112.3z"/>
		</g>
	</g>
</g>
</svg>
